<?xml version="1.0"?>
<svg xmlns="http://www.w3.org/2000/svg" xmlns:xlink="http://www.w3.org/1999/xlink" xmlns:svgjs="http://svgjs.com/svgjs" version="1.1" width="512" height="512" x="0" y="0" viewBox="0 0 496 496.00012" style="enable-background:new 0 0 512 512" xml:space="preserve" class=""><g><path xmlns="http://www.w3.org/2000/svg" d="m303.996094 0h-112c-86.886719-.03125-162.957032 58.3125-185.453125 142.238281-22.492188 83.925781 14.199219 172.492188 89.453125 215.921875v129.839844c0 3.429688 2.1875 6.476562 5.4375 7.574219.824218.285156 1.691406.425781 2.5625.425781 2.507812.011719 4.875-1.152344 6.398437-3.144531l83.199219-108.855469h110.402344c106.035156 0 192-85.960938 192-192s-85.964844-192-192-192zm124.421875 316.425781c-32.921875 33.117188-77.726563 51.6875-124.421875 51.574219h-112c-.523438 0-1.019532 0-1.539063-.039062-.308593.011718-.617187.042968-.925781.085937-.503906 0-1.003906.050781-1.496094.144531-.582031.117188-1.148437.308594-1.679687.570313-.363281.15625-.710938.34375-1.042969.558593-.53125.355469-1.015625.777344-1.445312 1.253907-.167969.1875-.394532.28125-.554688.488281l-71.316406 93.296875v-110.757813c-.046875-.351562-.117188-.699218-.210938-1.042968-.054687-.542969-.167968-1.078125-.328125-1.597656-.1875-.476563-.425781-.933594-.703125-1.359376-.238281-.441406-.519531-.855468-.839844-1.242187-.386718-.40625-.820312-.769531-1.289062-1.078125-.25-.246094-.515625-.472656-.796875-.679688-70.710937-38.472656-106.308594-120.015624-86.449219-198.023437 19.859375-78.011719 90.117188-132.605469 170.617188-132.578125h112c71.167968.023438 135.316406 42.902344 162.550781 108.65625 27.230469 65.75 12.183594 141.433594-38.128906 191.769531zm0 0" fill="#008d36" data-original="#000000" style=""/><path xmlns="http://www.w3.org/2000/svg" d="m135.996094 168c-17.675782 0-32 14.328125-32 32s14.324218 32 32 32c17.671875 0 32-14.328125 32-32s-14.328125-32-32-32zm0 48c-8.839844 0-16-7.164062-16-16s7.160156-16 16-16c8.835937 0 16 7.164062 16 16s-7.164063 16-16 16zm0 0" fill="#008d36" data-original="#000000" style=""/><path xmlns="http://www.w3.org/2000/svg" d="m247.996094 168c-17.675782 0-32 14.328125-32 32s14.324218 32 32 32c17.671875 0 32-14.328125 32-32s-14.328125-32-32-32zm0 48c-8.839844 0-16-7.164062-16-16s7.160156-16 16-16c8.835937 0 16 7.164062 16 16s-7.164063 16-16 16zm0 0" fill="#008d36" data-original="#000000" style=""/><path xmlns="http://www.w3.org/2000/svg" d="m359.996094 168c-17.675782 0-32 14.328125-32 32s14.324218 32 32 32c17.671875 0 32-14.328125 32-32s-14.328125-32-32-32zm0 48c-8.839844 0-16-7.164062-16-16s7.160156-16 16-16c8.835937 0 16 7.164062 16 16s-7.164063 16-16 16zm0 0" fill="#008d36" data-original="#000000" style=""/></g></svg>
