<?xml version="1.0"?>
<svg xmlns="http://www.w3.org/2000/svg" xmlns:xlink="http://www.w3.org/1999/xlink" xmlns:svgjs="http://svgjs.com/svgjs" version="1.1" width="512" height="512" x="0" y="0" viewBox="0 0 511.341 511.341" style="enable-background:new 0 0 512 512" xml:space="preserve" class=""><g><g xmlns="http://www.w3.org/2000/svg"><path d="m427.416 441.757h-27.788v-431.757c0-5.523-4.477-10-10-10h-267.915c-5.523 0-10 4.477-10 10v431.757h-27.788c-19.991 0-36.255 16.264-36.255 36.254v23.33c0 5.523 4.477 10 10 10h396c5.523 0 10-4.477 10-10v-23.33c0-19.99-16.263-36.254-36.254-36.254zm-295.703-421.757h247.915v421.757h-62.213v-91.591c0-5.523-4.477-10-10-10h-103.489c-5.523 0-10 4.477-10 10v91.591h-62.213zm165.702 421.757h-83.489v-81.591h83.489zm146.255 49.584h-376v-13.33c0-8.963 7.292-16.254 16.255-16.254h343.49c8.963 0 16.255 7.292 16.255 16.254z" fill="#008d36" data-original="#000000" style="" class=""/><path d="m284.52 122.298h55.149c5.523 0 10-4.477 10-10v-55.149c0-5.523-4.477-10-10-10h-55.149c-5.523 0-10 4.477-10 10v55.149c0 5.523 4.477 10 10 10zm10-55.149h35.149v35.149h-35.149z" fill="#008d36" data-original="#000000" style="" class=""/><path d="m171.672 122.298h55.149c5.523 0 10-4.477 10-10v-55.149c0-5.523-4.477-10-10-10h-55.149c-5.523 0-10 4.477-10 10v55.149c0 5.523 4.477 10 10 10zm10-55.149h35.149v35.149h-35.149z" fill="#008d36" data-original="#000000" style="" class=""/><path d="m284.52 219.95h55.149c5.523 0 10-4.477 10-10v-55.149c0-5.523-4.477-10-10-10h-55.149c-5.523 0-10 4.477-10 10v55.149c0 5.523 4.477 10 10 10zm10-55.149h35.149v35.149h-35.149z" fill="#008d36" data-original="#000000" style="" class=""/><path d="m171.672 219.95h55.149c5.523 0 10-4.477 10-10v-55.149c0-5.523-4.477-10-10-10h-55.149c-5.523 0-10 4.477-10 10v55.149c0 5.523 4.477 10 10 10zm10-55.149h35.149v35.149h-35.149z" fill="#008d36" data-original="#000000" style="" class=""/><path d="m284.52 317.602h55.149c5.523 0 10-4.477 10-10v-55.149c0-5.523-4.477-10-10-10h-55.149c-5.523 0-10 4.477-10 10v55.149c0 5.523 4.477 10 10 10zm10-55.149h35.149v35.149h-35.149z" fill="#008d36" data-original="#000000" style="" class=""/><path d="m226.821 317.602c5.523 0 10-4.477 10-10v-55.149c0-5.523-4.477-10-10-10h-55.149c-5.523 0-10 4.477-10 10v55.149c0 5.523 4.477 10 10 10zm-45.149-55.149h35.149v35.149h-35.149z" fill="#008d36" data-original="#000000" style="" class=""/></g></g></svg>
